<?xml version="1.0" encoding="UTF-8" standalone="no"?>
<svg
   width="600"
   height="547"
   viewBox="0 0 600 547"
   fill="none"
   version="1.1"
   id="svg15"
   sodipodi:docname="plantylight.svg"
   inkscape:version="1.3.2 (091e20e, 2023-11-25)"
   xmlns:inkscape="http://www.inkscape.org/namespaces/inkscape"
   xmlns:sodipodi="http://sodipodi.sourceforge.net/DTD/sodipodi-0.dtd"
   xmlns="http://www.w3.org/2000/svg"
   xmlns:svg="http://www.w3.org/2000/svg">
  <defs
     id="defs15" />
  <sodipodi:namedview
     id="namedview15"
     pagecolor="#ffffff"
     bordercolor="#000000"
     borderopacity="0.25"
     inkscape:showpageshadow="2"
     inkscape:pageopacity="0.0"
     inkscape:pagecheckerboard="0"
     inkscape:deskcolor="#d1d1d1"
     inkscape:zoom="1.503823"
     inkscape:cx="551.59419"
     inkscape:cy="239.38988"
     inkscape:window-width="2560"
     inkscape:window-height="1387"
     inkscape:window-x="0"
     inkscape:window-y="25"
     inkscape:window-maximized="1"
     inkscape:current-layer="svg15" />
  <rect
     style="fill:#ffffff;fill-opacity:1"
     id="rect21"
     width="600.84985"
     height="547.30884"
     x="4.2145382e-07"
     y="1.0806508e-07" />
  <path
     d="m 263.43138,49.849274 c -3.85596,20.290656 -11.12272,36.750954 -35.22334,75.488156 -39.04205,61.60889 -49.57056,81.16184 -49.57056,115.10358 0,30.25057 8.93576,52.55391 37.85547,67.67854 13.97829,7.37967 33.88415,9.564 57.50062,8.45758 54.46762,-2.95134 73.63393,-33.6268 60.62049,-100.77044 -5.78394,-30.62115 -23.9126,-57.0135 -29.21411,-52.95573 -1.44556,1.10774 0.96312,13.28235 5.30151,27.30055 4.82082,13.65028 8.67678,40.58159 9.15921,59.02812 0.4807,32.46474 0,34.67891 -13.01517,44.2701 -11.08546,8.85402 -17.35183,10.32969 -39.04205,10.32969 -44.82598,0 -70.37216,-22.13505 -70.37216,-61.24096 0,-28.03773 9.6399,-50.91128 45.79084,-107.72523 18.31495,-28.40672 33.74053,-58.65835 37.59649,-72.308363 l 6.26464,-23.610983 17.83426,11.805492 c 27.95659,18.81499 46.27154,51.649114 48.20125,85.958764 0.96313,21.39788 3.37354,30.2519 10.1206,35.78533 16.38871,14.01953 33.25811,8.48477 40.97003,-13.28103 l 3.85596,-10.32969 7.71193,11.80536 c 11.08718,16.23237 19.28153,61.24097 15.42557,85.59018 -6.7488,42.79443 -24.10062,57.55113 -70.85459,61.61022 -39.04205,3.31926 -55.91318,14.38745 -60.73227,40.21233 l -1.77927,18.2242 c -0.0121,0.12705 -0.14525,0.22763 -0.31125,0.23425 l -56.71376,2.57018 c -91.57996,3.68851 -149.901806,17.70804 -141.707455,33.94041 3.373535,7.0091 16.932825,14.5861 40.551015,12.37326 28.91972,-3.32059 29.5453,3.67737 44.00429,61.2285 12.53274,50.91127 23.41162,54.04568 37.87234,54.04568 17.35183,0 20.72537,-9.22327 18.31669,-50.91128 -1.44729,-21.76712 -1.44729,-41.68933 -0.48243,-44.27142 4.33839,-8.48477 16.38697,-4.42701 23.6182,8.48477 8.67505,16.60162 23.13577,17.34011 34.70365,1.84492 10.60303,-14.0182 26.10661,-10.13104 30.445,3.14999 5.30152,16.23369 18.65596,16.30586 30.70627,3.76333 9.6399,-9.96176 13.04429,-11.08065 33.28895,-11.08065 14.46072,0 21.72106,-4.68669 19.79308,-6.89953 -1.44555,-1.84492 -13.49586,-3.68984 -26.02687,-3.68984 -18.79911,0 -24.13148,-2.07966 -30.39785,4.56019 -4.82081,4.79626 -9.62534,4.84482 -11.0709,2.63197 -6.74706,-11.43743 -11.71104,-15.913 -24.24205,-15.913 -13.01517,0 -21.54706,-0.6276 -33.59737,15.23552 -4.82082,5.90268 -3.9357,8.37652 -11.64762,-3.06091 -13.49587,-20.29013 -28.66598,-24.28819 -44.08983,-12.48283 -9.1592,7.01042 -12.43672,13.88634 -9.06318,52.99226 2.4104,30.98907 6.10692,37.78704 1.76853,40.0012 -10.1206,4.79494 -11.66217,2.7322 -23.71248,-46.7034 -16.38871,-66.40515 -16.38871,-66.7744 -63.14268,-66.7744 -14.45899,0 -16.70413,-1.83245 -16.70413,-4.04662 0,-8.48477 74.55226,-15.94523 133.80816,-17.36622 l 43.83319,-1.05114 4.39017,12.13429 4.33666,15.86312 38.07892,-1.10642 c 44.34356,-1.10642 102.18472,-7.37835 114.71573,-12.54386 4.33839,-1.84359 8.19435,-6.27192 8.19435,-9.96044 0,-7.7476 -15.90627,-9.96044 -105.55825,-14.01952 l -43.74514,-2.2722 c -0.36831,-0.0159 -0.64843,-0.25676 -0.62595,-0.53866 l 1.32561,-16.54256 c 3.37353,-22.5043 7.82213,-23.61477 43.97134,-27.67253 38.56135,-3.68852 58.95149,-12.88326 72.44735,-33.54264 9.15748,-14.01953 14.1255,-25.73802 14.1255,-58.572 -0.48243,-42.05726 -6.97053,-66.12005 -23.35923,-84.93583 -15.90627,-18.07729 -32.99382,-21.31099 -32.99382,-4.34013 0,8.11553 -5.00526,17.16908 -8.86123,20.85892 -12.04858,12.91178 -10.16317,5.78729 -12.57358,-26.30953 C 368.61356,99.425931 352.89175,62.649046 323.97204,42.358391 286.85798,16.164919 269.21532,19.22866 263.43138,49.849274 Z M 430.82119,382.67093 c 12.53274,1.10643 12.791,2.91992 11.82788,4.39559 -2.41041,3.32059 -43.61212,7.2375 -84.58215,8.71317 l -30.95891,2.50877 -4.66514,-10.8568 -0.74038,-8.07298 c 6.38882,0.11806 8.11693,0.126 8.54403,0.14851 l 38.84939,0.88456 c 26.0286,1.47567 49.19427,0.80337 61.72528,2.27904 z"
     fill="#000000"
     id="path15"
     sodipodi:nodetypes="ccscccccccssccccccccccccccccccsccccccscsccsccscccssscccccsccccccccscccccccccccccc"
     style="stroke-width:1.51276" />
</svg>
